<?xml version="1.0" standalone="no"?>
<!DOCTYPE svg PUBLIC "-//W3C//DTD SVG 20010904//EN"
 "http://www.w3.org/TR/2001/REC-SVG-20010904/DTD/svg10.dtd">
<svg version="1.0" xmlns="http://www.w3.org/2000/svg"
 width="995.000000pt" height="995.000000pt" viewBox="0 0 995.000000 995.000000"
 preserveAspectRatio="xMidYMid meet">
<metadata>
Created by potrace 1.11, written by Peter Selinger 2001-2013
</metadata>
<g transform="translate(0.000000,995.000000) scale(0.100000,-0.100000)"
fill="#000000" stroke="none">
<path d="M9619 8516 c-2 -2 -22 -6 -44 -10 -22 -3 -51 -8 -65 -11 -36 -9 -62
-14 -89 -20 -13 -2 -38 -9 -56 -15 -18 -6 -41 -12 -51 -15 -10 -2 -46 -11 -79
-20 -369 -102 -409 -106 -615 -63 -129 28 -136 29 -280 48 -47 6 -98 13 -115
15 -153 22 -695 22 -800 1 -11 -2 -56 -7 -100 -11 -44 -4 -89 -9 -100 -11 -11
-2 -49 -8 -85 -14 -36 -5 -74 -12 -85 -14 -11 -2 -42 -7 -70 -11 -27 -5 -52
-9 -55 -10 -3 0 -23 -5 -45 -10 -22 -5 -42 -9 -45 -10 -17 -4 -69 -16 -88 -20
-13 -2 -32 -7 -42 -10 -10 -3 -28 -8 -40 -10 -13 -2 -84 -22 -159 -44 -302
-89 -596 -199 -885 -332 l-158 -72 -76 32 c-144 61 -363 135 -465 157 -180 39
-230 46 -372 48 -202 4 -374 -42 -519 -140 -32 -21 -86 -56 -119 -78 -85 -53
-141 -97 -218 -170 -77 -73 -101 -99 -324 -361 -164 -192 -345 -337 -565 -449
-180 -93 -269 -161 -334 -260 -47 -72 -69 -149 -81 -296 -15 -176 -21 -198
-74 -264 -17 -21 -31 -46 -32 -55 0 -9 -3 -25 -5 -36 -19 -80 -2 -196 40 -276
l24 -47 -27 -39 c-15 -21 -69 -94 -119 -163 -142 -196 -215 -349 -228 -478 -3
-31 -10 -73 -15 -92 -9 -36 -16 -48 -110 -197 -63 -101 -95 -170 -103 -229 -4
-22 -10 -54 -15 -70 -4 -16 -7 -50 -6 -77 1 -32 -4 -52 -14 -61 -18 -15 -175
-96 -236 -121 -67 -27 -501 -128 -650 -151 -22 -3 -112 -8 -200 -10 -147 -3
-270 9 -326 31 -23 9 -108 -35 -132 -67 -31 -42 -28 -117 7 -162 63 -83 224
-223 318 -277 153 -88 355 -155 518 -173 25 -3 61 -10 80 -16 118 -35 343 -16
558 47 29 9 55 14 57 11 3 -3 -1 -35 -9 -71 -7 -37 -11 -68 -9 -71 6 -6 -58
-23 -156 -42 -42 -8 -85 -17 -96 -19 -11 -2 -34 -6 -52 -9 -34 -5 -89 -31
-109 -50 -39 -40 -56 -132 -34 -190 5 -14 33 -41 61 -60 44 -30 50 -36 33 -42
-10 -3 -31 -10 -46 -16 -25 -9 -35 -3 -123 64 -261 198 -362 253 -480 260 -79
4 -152 -23 -193 -72 -19 -23 -58 -100 -72 -143 -7 -23 -32 -56 -63 -85 -262
-239 -340 -355 -346 -517 -3 -80 17 -125 87 -194 99 -99 222 -141 424 -144
l106 -2 49 -46 c26 -25 88 -70 138 -100 82 -49 131 -91 193 -161 34 -39 111
-61 224 -64 118 -3 133 -7 178 -49 117 -107 262 -134 515 -95 77 12 151 23
165 26 14 2 61 6 106 8 164 8 223 37 464 225 95 74 195 129 249 135 86 10 248
148 315 269 41 73 70 158 81 234 5 37 17 61 56 108 93 113 155 261 166 396 l6
77 171 67 c390 154 554 239 743 388 l63 48 136 -77 c135 -77 138 -78 218 -82
103 -5 201 18 342 81 l101 46 184 -1 c468 -2 759 63 982 219 27 19 50 33 52
31 2 -2 30 -67 62 -144 67 -159 130 -267 200 -341 51 -53 250 -200 343 -251
143 -80 268 -95 390 -46 37 15 44 15 93 0 28 -10 71 -26 94 -37 24 -10 49 -19
56 -19 7 0 17 -4 23 -9 5 -5 43 -19 84 -31 84 -24 227 -33 306 -18 56 10 51 6
291 264 259 278 577 833 800 1394 93 233 115 294 209 577 87 263 96 297 129
500 20 120 38 230 40 245 3 16 7 40 9 56 12 75 19 119 22 137 4 20 10 64 18
130 3 22 10 76 15 120 13 101 19 176 26 345 3 75 7 147 10 160 2 14 7 65 10
115 4 49 8 92 10 95 1 3 6 35 10 73 3 37 14 115 24 172 16 99 16 106 0 132
-17 27 -17 29 19 103 33 67 37 83 39 167 2 78 12 156 48 358 3 17 8 41 11 55
18 76 33 227 31 310 -2 82 -7 104 -31 153 -40 83 -91 111 -207 114 -48 1 -88
1 -90 -1z"/>
<path d="M8619 2948 c-8 -16 -5 -18 24 -18 l34 0 -1 -75 -1 -75 27 0 28 0 0
75 c0 55 3 75 13 74 31 -4 47 2 47 19 0 15 -10 17 -81 18 -67 0 -82 -3 -90
-18z"/>
<path d="M8820 2873 c0 -93 0 -93 25 -93 24 0 25 2 26 73 1 77 0 78 30 -36 9
-33 13 -38 37 -35 22 3 28 11 42 58 9 30 17 59 17 63 1 5 4 11 7 14 2 3 4 -27
2 -66 -2 -70 -1 -71 24 -71 25 0 25 0 25 90 0 96 2 93 -55 92 -40 0 -40 -1
-40 -29 -1 -16 -7 -41 -15 -58 -13 -30 -13 -30 -15 -5 -1 14 -7 41 -14 60 -11
31 -16 34 -54 35 l-42 1 0 -93z"/>
</g>
</svg>
